<svg width="24" height="24" viewBox="0 0 24 24" fill="none" xmlns="http://www.w3.org/2000/svg">
<path fill-rule="evenodd" clip-rule="evenodd" d="M12.656 19.4033C9.60577 19.4033 7 18.9492 7 17.1306C7 15.3121 9.58882 13.729 12.656 13.729C15.7063 13.729 18.3121 15.2973 18.3121 17.1149C18.3121 18.9325 15.7233 19.4033 12.656 19.4033Z" stroke="#262338" stroke-width="1.5" stroke-linecap="round" stroke-linejoin="round"/>
<path fill-rule="evenodd" clip-rule="evenodd" d="M12.656 11.136C14.6581 11.136 16.2816 9.539 16.2816 7.56847C16.2816 5.59793 14.6581 4 12.656 4C10.6538 4 9.03029 5.59793 9.03029 7.56847C9.02464 9.53159 10.635 11.1295 12.6305 11.136H12.656Z" stroke="#262338" stroke-width="1.5" stroke-linecap="round" stroke-linejoin="round"/>
<path d="M23 6.25V6.25C23 5.08776 23 4.50665 22.8801 4.02808C22.5215 2.59638 21.4036 1.4785 19.9719 1.11987C19.4934 1 18.9122 1 17.75 1V1M23 16.75V16.75C23 17.9122 23 18.4934 22.8801 18.9719C22.5215 20.4036 21.4036 21.5215 19.9719 21.8801C19.4934 22 18.9122 22 17.75 22V22M2 6.25V6.25C2 5.08776 2 4.50665 2.11987 4.02808C2.4785 2.59638 3.59638 1.4785 5.02808 1.11987C5.50665 1 6.08776 1 7.25 1V1M2 16.75V16.75C2 17.9122 2 18.4934 2.11987 18.9719C2.4785 20.4036 3.59638 21.5215 5.02808 21.8801C5.50665 22 6.08776 22 7.25 22V22" stroke="#272727" stroke-width="1.5" stroke-linecap="round" stroke-linejoin="round"/>
</svg>
